<svg viewBox="0 0 18.0039 13.3218" xmlns="http://www.w3.org/2000/svg" xmlns:xlink="http://www.w3.org/1999/xlink" width="18.003906" height="13.321777" fill="none" customFrame="#000000">
	<path id="Arrow 2" d="M0 -1L17 -1L17 1L0 1L0 -1ZM15.5858 0L10.636 -4.94975C10.2401 -5.34573 10.2401 -5.96798 10.636 -6.36396C11.032 -6.75994 11.6543 -6.75994 12.0503 -6.36396L17.7071 -0.707107C18.1031 -0.311127 18.1031 0.311127 17.7071 0.707107L12.0503 6.36396C11.6543 6.75994 11.032 6.75994 10.636 6.36396C10.2401 5.96798 10.2401 5.34573 10.636 4.94975L15.5858 0Z" fill="rgb(0,0,0)" fill-rule="nonzero" transform="matrix(-1,-1.22465e-16,1.22465e-16,-1,18.0039,6.66089)" />
</svg>
