<svg viewBox="0 0 401 511" xmlns="http://www.w3.org/2000/svg" xmlns:xlink="http://www.w3.org/1999/xlink" width="401.000000" height="511.000000" fill="none" customFrame="#000000">
	<defs>
		<g id="pixso_custom_effect_3">
			<effect x="0.000000" y="4.000000" visibility="visible" fill="rgb(0,0,0)" fill-opacity="0.25" effectType="dropShadow" stdDeviation="70" radius="0" />
		</g>
		<filter id="filter_3" width="401.000000" height="511.000000" x="0.000000" y="0.000000" filterUnits="userSpaceOnUse" customEffect="url(#pixso_custom_effect_3)" color-interpolation-filters="sRGB">
			<feFlood flood-opacity="0" result="BackgroundImageFix" />
			<feColorMatrix result="hardAlpha" in="SourceAlpha" type="matrix" values="0 0 0 0 0 0 0 0 0 0 0 0 0 0 0 0 0 0 127 0 " />
			<feOffset dx="0.000000" dy="4.000000" in="hardAlpha" />
			<feGaussianBlur stdDeviation="23.333334" />
			<feComposite k2="-1" k3="1" in2="hardAlpha" operator="out" />
			<feColorMatrix type="matrix" values="0 0 0 0 0 0 0 0 0 0 0 0 0 0 0 0 0 0 0.25 0 " />
			<feBlend result="effect_dropShadow_1" in2="BackgroundImageFix" mode="normal" />
			<feBlend result="shape" in="SourceGraphic" in2="effect_dropShadow_1" mode="normal" />
		</filter>
		<g id="pixso_custom_effect_4">
			<effect x="10.000000" y="15.000000" visibility="visible" fill="rgb(0,0,0)" fill-opacity="0.0399999991" effectType="dropShadow" showShadowBehind="1" stdDeviation="25" radius="0" />
		</g>
		<filter id="filter_4" width="311.000000" height="421.000000" x="55.000000" y="56.000000" filterUnits="userSpaceOnUse" customEffect="url(#pixso_custom_effect_4)" color-interpolation-filters="sRGB">
			<feFlood flood-opacity="0" result="BackgroundImageFix" />
			<feOffset dx="10.000000" dy="15.000000" in="SourceAlpha" />
			<feGaussianBlur stdDeviation="8.33333302" />
			<feColorMatrix type="matrix" values="0 0 0 0 0 0 0 0 0 0 0 0 0 0 0 0 0 0 0.04 0 " />
			<feBlend result="effect_dropShadow_1" in2="BackgroundImageFix" mode="normal" />
			<feBlend result="shape" in="SourceGraphic" in2="effect_dropShadow_1" mode="normal" />
		</filter>
	</defs>
	<g id="Group 8" filter="url(#filter_3)">
		<g filter="url(#filter_4)">
			<path id="Rectangle 15" d="M70 66L331 66L331 327L200.5 437L70 327L70 66Z" fill="rgb(255,255,255)" fill-rule="nonzero" />
		</g>
		<g id="Group 4">
			<path id="Happy Clients" d="M132.435 269.273L135.07 269.273L135.07 263.094L141.81 263.094L141.81 269.273L144.452 269.273L144.452 254.727L141.81 254.727L141.81 260.885L135.07 260.885L135.07 254.727L132.435 254.727L132.435 269.273ZM150.343 269.493C152.055 269.493 153.077 268.69 153.546 267.774L153.631 267.774L153.631 269.273L156.103 269.273L156.103 261.972C156.103 259.088 153.752 258.222 151.671 258.222C149.377 258.222 147.616 259.244 147.048 261.233L149.448 261.574C149.704 260.828 150.428 260.189 151.685 260.189C152.879 260.189 153.532 260.8 153.532 261.872L153.532 261.915C153.532 262.653 152.758 262.689 150.833 262.895C148.717 263.122 146.692 263.754 146.692 266.212C146.692 268.357 148.262 269.493 150.343 269.493ZM151.011 267.604C149.938 267.604 149.171 267.114 149.171 266.169C149.171 265.182 150.031 264.77 151.181 264.607C151.856 264.514 153.205 264.344 153.539 264.074L153.539 265.359C153.539 266.574 152.559 267.604 151.011 267.604ZM158.688 273.364L161.259 273.364L161.259 267.554L161.366 267.554C161.771 268.349 162.616 269.464 164.491 269.464C167.062 269.464 168.987 267.426 168.987 263.832C168.987 260.196 167.005 258.222 164.484 258.222C162.559 258.222 161.756 259.379 161.366 260.168L161.217 260.168L161.217 258.364L158.688 258.364L158.688 273.364ZM161.21 263.818C161.21 261.702 162.119 260.331 163.773 260.331C165.485 260.331 166.366 261.787 166.366 263.818C166.366 265.864 165.471 267.355 163.773 267.355C162.133 267.355 161.21 265.935 161.21 263.818ZM171.188 273.364L173.759 273.364L173.759 267.554L173.866 267.554C174.271 268.349 175.116 269.464 176.991 269.464C179.562 269.464 181.487 267.426 181.487 263.832C181.487 260.196 179.505 258.222 176.984 258.222C175.059 258.222 174.256 259.379 173.866 260.168L173.717 260.168L173.717 258.364L171.188 258.364L171.188 273.364ZM173.71 263.818C173.71 261.702 174.619 260.331 176.273 260.331C177.985 260.331 178.866 261.787 178.866 263.818C178.866 265.864 177.971 267.355 176.273 267.355C174.633 267.355 173.71 265.935 173.71 263.818ZM184.915 273.364C186.918 273.364 188.076 272.334 188.694 270.594L193.076 258.378L190.327 258.364L187.806 266.602L187.692 266.602L185.178 258.364L182.451 258.364L186.407 269.5L186.186 270.089C185.711 271.332 184.958 271.418 183.836 271.091L183.239 273.094C183.587 273.236 184.212 273.364 184.915 273.364ZM217.346 259.635C216.898 256.403 214.413 254.528 211.188 254.528C207.388 254.528 204.526 257.298 204.526 262C204.526 266.695 207.353 269.472 211.188 269.472C214.647 269.472 216.941 267.234 217.346 264.457L214.69 264.443C214.356 266.148 212.964 267.107 211.224 267.107C208.866 267.107 207.175 265.338 207.175 262C207.175 258.719 208.852 256.893 211.231 256.893C212.999 256.893 214.384 257.895 214.69 259.635L217.346 259.635ZM222.216 254.727L219.645 254.727L219.645 269.273L222.216 269.273L222.216 254.727ZM224.86 269.273L227.431 269.273L227.431 258.364L224.86 258.364L224.86 269.273ZM226.153 256.815C226.969 256.815 227.637 256.19 227.637 255.423C227.637 254.649 226.969 254.024 226.153 254.024C225.329 254.024 224.661 254.649 224.661 255.423C224.661 256.19 225.329 256.815 226.153 256.815ZM234.904 269.486C237.447 269.486 239.194 268.243 239.649 266.347L237.248 266.077C236.9 267 236.048 267.483 234.94 267.483C233.278 267.483 232.177 266.389 232.156 264.521L239.755 264.521L239.755 263.733C239.755 259.905 237.454 258.222 234.77 258.222C231.645 258.222 229.606 260.516 229.606 263.882C229.606 267.305 231.616 269.486 234.904 269.486ZM232.163 262.788C232.241 261.396 233.271 260.224 234.805 260.224C236.282 260.224 237.277 261.304 237.291 262.788L232.163 262.788ZM244.501 262.881C244.501 261.304 245.453 260.395 246.81 260.395C248.138 260.395 248.933 261.268 248.933 262.724L248.933 269.273L251.504 269.273L251.504 262.327C251.511 259.713 250.02 258.222 247.768 258.222C246.135 258.222 245.013 259.003 244.516 260.217L244.388 260.217L244.388 258.364L241.93 258.364L241.93 269.273L244.501 269.273L244.501 262.881ZM259.565 258.364L257.413 258.364L257.413 255.75L254.842 255.75L254.842 258.364L253.294 258.364L253.294 260.352L254.842 260.352L254.842 266.418C254.828 268.47 256.32 269.479 258.251 269.422C258.983 269.401 259.487 269.259 259.764 269.166L259.331 267.156C259.189 267.192 258.898 267.256 258.578 267.256C257.932 267.256 257.413 267.028 257.413 265.991L257.413 260.352L259.565 260.352L259.565 258.364ZM270.181 261.247C269.826 259.401 268.349 258.222 265.792 258.222C263.164 258.222 261.375 259.514 261.382 261.531C261.375 263.122 262.355 264.173 264.45 264.607L266.311 264.997C267.312 265.217 267.781 265.622 267.781 266.24C267.781 266.986 266.971 267.547 265.75 267.547C264.571 267.547 263.804 267.036 263.583 266.055L261.076 266.297C261.396 268.3 263.079 269.486 265.757 269.486C268.484 269.486 270.409 268.072 270.416 266.006C270.409 264.45 269.407 263.499 267.348 263.051L265.487 262.653C264.379 262.405 263.939 262.021 263.946 261.389C263.939 260.651 264.755 260.139 265.828 260.139C267.014 260.139 267.639 260.786 267.838 261.503L270.181 261.247Z" opacity="0.699999988" fill="rgb(5,0,11)" fill-rule="nonzero" />
			<path id="50+" d="M163.002 215.547C160.242 215.547 157.781 215.039 155.62 214.023C153.471 213.008 151.765 211.608 150.502 209.824C149.239 208.04 148.582 205.996 148.53 203.691L156.733 203.691C156.824 205.241 157.475 206.497 158.686 207.461C159.897 208.424 161.336 208.906 163.002 208.906C164.331 208.906 165.502 208.613 166.518 208.027C167.547 207.428 168.347 206.602 168.92 205.547C169.506 204.479 169.799 203.255 169.799 201.875C169.799 200.469 169.5 199.232 168.901 198.164C168.315 197.096 167.501 196.263 166.459 195.664C165.418 195.065 164.226 194.759 162.885 194.746C161.713 194.746 160.574 194.987 159.467 195.469C158.374 195.951 157.521 196.608 156.909 197.441L149.389 196.094L151.284 175L175.737 175L175.737 181.914L158.256 181.914L157.221 191.934L157.456 191.934C158.159 190.944 159.22 190.124 160.639 189.473C162.058 188.822 163.647 188.496 165.405 188.496C167.814 188.496 169.962 189.062 171.85 190.195C173.738 191.328 175.229 192.884 176.323 194.863C177.417 196.829 177.957 199.095 177.944 201.66C177.957 204.355 177.332 206.751 176.069 208.848C174.819 210.931 173.068 212.572 170.815 213.77C168.575 214.954 165.971 215.547 163.002 215.547ZM199.526 215.879C196.167 215.866 193.276 215.039 190.854 213.398C188.445 211.758 186.59 209.382 185.288 206.27C183.999 203.158 183.361 199.414 183.374 195.039C183.374 190.677 184.018 186.96 185.307 183.887C186.609 180.814 188.465 178.477 190.874 176.875C193.295 175.26 196.18 174.453 199.526 174.453C202.872 174.453 205.75 175.26 208.159 176.875C210.581 178.49 212.443 180.833 213.745 183.906C215.047 186.966 215.691 190.677 215.678 195.039C215.678 199.427 215.027 203.177 213.725 206.289C212.436 209.401 210.587 211.777 208.178 213.418C205.769 215.059 202.885 215.879 199.526 215.879ZM199.526 208.867C201.818 208.867 203.647 207.715 205.014 205.41C206.381 203.105 207.058 199.648 207.045 195.039C207.045 192.005 206.733 189.479 206.108 187.461C205.496 185.443 204.624 183.926 203.491 182.91C202.371 181.895 201.049 181.387 199.526 181.387C197.247 181.387 195.424 182.526 194.057 184.805C192.69 187.083 192 190.495 191.987 195.039C191.987 198.112 192.293 200.677 192.905 202.734C193.53 204.779 194.409 206.315 195.542 207.344C196.674 208.359 198.002 208.867 199.526 208.867ZM233.662 208.906L233.662 181.25L240.654 181.25L240.654 208.906L233.662 208.906ZM223.33 198.574L223.33 191.582L250.986 191.582L250.986 198.574L223.33 198.574Z" fill="rgb(255,90,5)" fill-rule="nonzero" />
		</g>
	</g>
</svg>
