<svg viewBox="0 0 121 25" xmlns="http://www.w3.org/2000/svg" xmlns:xlink="http://www.w3.org/1999/xlink" width="121.000000" height="25.000000" fill="none" customFrame="#000000">
	<path id="WorldRead" d="M22.9739 5.30103L18.0623 20L15.8525 20L11.8433 8.25928L7.83398 20L5.58838 20L0.671631 5.30103L2.83521 5.30103L6.80347 17.2468L10.9409 5.30103L12.8738 5.30103L16.9241 17.3135L20.9795 5.30103L22.9739 5.30103ZM77.658 20L74.4895 15.4832Q73.8999 15.5293 73.5615 15.5293L69.9316 15.5293L69.9316 20L67.8296 20L67.8296 5.30103L73.5615 5.30103Q76.4172 5.30103 78.0527 6.66479Q79.6934 8.02856 79.6934 10.4229Q79.6934 12.125 78.8525 13.3247Q78.0168 14.5193 76.4634 15.0627L79.9446 20L77.658 20ZM73.5 13.74Q75.4944 13.74 76.5454 12.8838Q77.5964 12.0225 77.5964 10.4229Q77.5964 8.82837 76.5454 7.97729Q75.4944 7.12622 73.5 7.12622L69.9316 7.12622L69.9316 13.74L73.5 13.74Z" fill="rgb(255,90,5)" fill-rule="nonzero" />
	<path id="WorldRead" d="M30.3264 20.1282Q28.6653 20.1282 27.3425 19.395Q26.0198 18.6567 25.2712 17.3647Q24.5278 16.0728 24.5278 14.4373Q24.5278 12.7966 25.2712 11.5046Q26.0198 10.2126 27.3425 9.48975Q28.6653 8.76685 30.3264 8.76685Q31.9824 8.76685 33.2949 9.48975Q34.6074 10.2126 35.3508 11.5046Q36.0994 12.7966 36.0994 14.4373Q36.0994 16.0728 35.3508 17.3647Q34.6074 18.6567 33.2949 19.395Q31.9824 20.1282 30.3264 20.1282ZM30.3264 18.3645Q31.3928 18.3645 32.2439 17.8723Q33.095 17.375 33.5769 16.4829Q34.064 15.5908 34.064 14.4373Q34.064 13.2786 33.5769 12.3865Q33.095 11.4944 32.2439 11.0125Q31.3928 10.5305 30.3264 10.5305Q29.2549 10.5305 28.4038 11.0125Q27.5527 11.4944 27.0554 12.3865Q26.5632 13.2786 26.5632 14.4373Q26.5632 15.5908 27.0554 16.4829Q27.5527 17.375 28.4038 17.8723Q29.2549 18.3645 30.3264 18.3645ZM40.8262 10.7407Q41.3492 9.77173 42.3746 9.26929Q43.4051 8.76685 44.8765 8.76685L44.8765 10.7202Q44.7073 10.6946 44.4151 10.6946Q42.7745 10.6946 41.8414 11.6738Q40.9082 12.6479 40.9082 14.4578L40.9082 20L38.8934 20L38.8934 8.86938L40.8262 8.86938L40.8262 10.7407ZM47.3564 4.41919L49.3712 4.41919L49.3712 20L47.3564 20L47.3564 4.41919ZM63.7154 4.41919L63.7154 20L61.7825 20L61.7825 18.2363Q61.1109 19.1592 60.0803 19.6462Q59.0498 20.1282 57.8142 20.1282Q56.1941 20.1282 54.9124 19.4155Q53.6358 18.6978 52.9077 17.4058Q52.1848 16.1138 52.1848 14.4373Q52.1848 12.7556 52.9077 11.4739Q53.6358 10.1921 54.9124 9.47949Q56.1941 8.76685 57.8142 8.76685Q59.0088 8.76685 60.0137 9.21802Q61.0237 9.66919 61.7005 10.551L61.7005 4.41919L63.7154 4.41919ZM57.9834 18.3645Q59.0293 18.3645 59.8906 17.8723Q60.752 17.375 61.2339 16.4829Q61.721 15.5908 61.721 14.4373Q61.721 13.2786 61.2339 12.3865Q60.752 11.4944 59.8906 11.0125Q59.0293 10.5305 57.9834 10.5305Q56.9119 10.5305 56.0608 11.0125Q55.2097 11.4944 54.7124 12.3865Q54.2202 13.2786 54.2202 14.4373Q54.2202 15.5908 54.7124 16.4829Q55.2097 17.375 56.0608 17.8723Q56.9119 18.3645 57.9834 18.3645ZM92.8634 14.4988Q92.8634 14.7295 92.8224 15.1089L83.7887 15.1089Q83.9784 16.5752 85.0807 17.4724Q86.183 18.3645 87.8236 18.3645Q89.818 18.3645 91.0331 17.0161L92.1457 18.3184Q91.392 19.2002 90.2692 19.6667Q89.1464 20.1282 87.757 20.1282Q85.9933 20.1282 84.6295 19.4053Q83.2658 18.6772 82.5172 17.375Q81.7738 16.0728 81.7738 14.4373Q81.7738 12.8171 82.4967 11.5149Q83.2248 10.2126 84.4911 9.48975Q85.7626 8.76685 87.3622 8.76685Q88.9567 8.76685 90.2025 9.48975Q91.4535 10.2126 92.1559 11.5149Q92.8634 12.8171 92.8634 14.4988ZM87.3622 10.4639Q85.9113 10.4639 84.932 11.3457Q83.9579 12.2275 83.7887 13.658L90.9306 13.658Q90.7614 12.2532 89.7821 11.3611Q88.808 10.4639 87.3622 10.4639ZM99.3916 8.76685Q101.704 8.76685 102.929 9.8999Q104.16 11.033 104.16 13.2786L104.16 20L102.247 20L102.247 18.5286Q101.745 19.3079 100.807 19.718Q99.8736 20.1282 98.597 20.1282Q96.7256 20.1282 95.6028 19.2258Q94.48 18.3184 94.48 16.8521Q94.48 15.3806 95.5516 14.4885Q96.6231 13.5964 98.9507 13.5964L102.145 13.5964L102.145 13.1965Q102.145 11.8943 101.386 11.2021Q100.632 10.51 99.1609 10.51Q98.1766 10.51 97.2281 10.8381Q96.2847 11.1611 95.6336 11.7046L94.7928 10.1921Q95.6541 9.5 96.8487 9.13599Q98.0484 8.76685 99.3916 8.76685ZM98.9302 18.5696Q100.084 18.5696 100.925 18.0569Q101.765 17.5442 102.145 16.5957L102.145 15.0422L99.0379 15.0422Q96.4744 15.0422 96.4744 16.7649Q96.4744 17.6057 97.1255 18.0876Q97.7767 18.5696 98.9302 18.5696ZM118.462 4.41919L118.462 20L116.529 20L116.529 18.2363Q115.858 19.1592 114.827 19.6462Q113.797 20.1282 112.561 20.1282Q110.941 20.1282 109.659 19.4155Q108.383 18.6978 107.655 17.4058Q106.932 16.1138 106.932 14.4373Q106.932 12.7556 107.655 11.4739Q108.383 10.1921 109.659 9.47949Q110.941 8.76685 112.561 8.76685Q113.756 8.76685 114.761 9.21802Q115.771 9.66919 116.447 10.551L116.447 4.41919L118.462 4.41919ZM112.73 18.3645Q113.776 18.3645 114.638 17.8723Q115.499 17.375 115.981 16.4829Q116.468 15.5908 116.468 14.4373Q116.468 13.2786 115.981 12.3865Q115.499 11.4944 114.638 11.0125Q113.776 10.5305 112.73 10.5305Q111.659 10.5305 110.808 11.0125Q109.957 11.4944 109.459 12.3865Q108.967 13.2786 108.967 14.4373Q108.967 15.5908 109.459 16.4829Q109.957 17.375 110.808 17.8723Q111.659 18.3645 112.73 18.3645Z" fill="rgb(255,90,5)" fill-rule="nonzero" />
	<path id="WorldRead" d="M30.3264 20.1282Q28.6653 20.1282 27.3425 19.395Q26.0198 18.6567 25.2712 17.3647Q24.5278 16.0728 24.5278 14.4373Q24.5278 12.7966 25.2712 11.5046Q26.0198 10.2126 27.3425 9.48975Q28.6653 8.76685 30.3264 8.76685Q31.9824 8.76685 33.2949 9.48975Q34.6074 10.2126 35.3508 11.5046Q36.0994 12.7966 36.0994 14.4373Q36.0994 16.0728 35.3508 17.3647Q34.6074 18.6567 33.2949 19.395Q31.9824 20.1282 30.3264 20.1282ZM30.3264 18.3645Q31.3928 18.3645 32.2439 17.8723Q33.095 17.375 33.5769 16.4829Q34.064 15.5908 34.064 14.4373Q34.064 13.2786 33.5769 12.3865Q33.095 11.4944 32.2439 11.0125Q31.3928 10.5305 30.3264 10.5305Q29.2549 10.5305 28.4038 11.0125Q27.5527 11.4944 27.0554 12.3865Q26.5632 13.2786 26.5632 14.4373Q26.5632 15.5908 27.0554 16.4829Q27.5527 17.375 28.4038 17.8723Q29.2549 18.3645 30.3264 18.3645ZM40.8262 10.7407Q41.3492 9.77173 42.3746 9.26929Q43.4051 8.76685 44.8765 8.76685L44.8765 10.7202Q44.7073 10.6946 44.4151 10.6946Q42.7745 10.6946 41.8414 11.6738Q40.9082 12.6479 40.9082 14.4578L40.9082 20L38.8934 20L38.8934 8.86938L40.8262 8.86938L40.8262 10.7407ZM47.3564 4.41919L49.3712 4.41919L49.3712 20L47.3564 20L47.3564 4.41919ZM63.7154 4.41919L63.7154 20L61.7825 20L61.7825 18.2363Q61.1109 19.1592 60.0803 19.6462Q59.0498 20.1282 57.8142 20.1282Q56.1941 20.1282 54.9124 19.4155Q53.6358 18.6978 52.9077 17.4058Q52.1848 16.1138 52.1848 14.4373Q52.1848 12.7556 52.9077 11.4739Q53.6358 10.1921 54.9124 9.47949Q56.1941 8.76685 57.8142 8.76685Q59.0088 8.76685 60.0137 9.21802Q61.0237 9.66919 61.7005 10.551L61.7005 4.41919L63.7154 4.41919ZM57.9834 18.3645Q59.0293 18.3645 59.8906 17.8723Q60.752 17.375 61.2339 16.4829Q61.721 15.5908 61.721 14.4373Q61.721 13.2786 61.2339 12.3865Q60.752 11.4944 59.8906 11.0125Q59.0293 10.5305 57.9834 10.5305Q56.9119 10.5305 56.0608 11.0125Q55.2097 11.4944 54.7124 12.3865Q54.2202 13.2786 54.2202 14.4373Q54.2202 15.5908 54.7124 16.4829Q55.2097 17.375 56.0608 17.8723Q56.9119 18.3645 57.9834 18.3645ZM92.8634 14.4988Q92.8634 14.7295 92.8224 15.1089L83.7887 15.1089Q83.9784 16.5752 85.0807 17.4724Q86.183 18.3645 87.8236 18.3645Q89.818 18.3645 91.0331 17.0161L92.1457 18.3184Q91.392 19.2002 90.2692 19.6667Q89.1464 20.1282 87.757 20.1282Q85.9933 20.1282 84.6295 19.4053Q83.2658 18.6772 82.5172 17.375Q81.7738 16.0728 81.7738 14.4373Q81.7738 12.8171 82.4967 11.5149Q83.2248 10.2126 84.4911 9.48975Q85.7626 8.76685 87.3622 8.76685Q88.9567 8.76685 90.2025 9.48975Q91.4535 10.2126 92.1559 11.5149Q92.8634 12.8171 92.8634 14.4988ZM87.3622 10.4639Q85.9113 10.4639 84.932 11.3457Q83.9579 12.2275 83.7887 13.658L90.9306 13.658Q90.7614 12.2532 89.7821 11.3611Q88.808 10.4639 87.3622 10.4639ZM99.3916 8.76685Q101.704 8.76685 102.929 9.8999Q104.16 11.033 104.16 13.2786L104.16 20L102.247 20L102.247 18.5286Q101.745 19.3079 100.807 19.718Q99.8736 20.1282 98.597 20.1282Q96.7256 20.1282 95.6028 19.2258Q94.48 18.3184 94.48 16.8521Q94.48 15.3806 95.5516 14.4885Q96.6231 13.5964 98.9507 13.5964L102.145 13.5964L102.145 13.1965Q102.145 11.8943 101.386 11.2021Q100.632 10.51 99.1609 10.51Q98.1766 10.51 97.2281 10.8381Q96.2847 11.1611 95.6336 11.7046L94.7928 10.1921Q95.6541 9.5 96.8487 9.13599Q98.0484 8.76685 99.3916 8.76685ZM98.9302 18.5696Q100.084 18.5696 100.925 18.0569Q101.765 17.5442 102.145 16.5957L102.145 15.0422L99.0379 15.0422Q96.4744 15.0422 96.4744 16.7649Q96.4744 17.6057 97.1255 18.0876Q97.7767 18.5696 98.9302 18.5696ZM118.462 4.41919L118.462 20L116.529 20L116.529 18.2363Q115.858 19.1592 114.827 19.6462Q113.797 20.1282 112.561 20.1282Q110.941 20.1282 109.659 19.4155Q108.383 18.6978 107.655 17.4058Q106.932 16.1138 106.932 14.4373Q106.932 12.7556 107.655 11.4739Q108.383 10.1921 109.659 9.47949Q110.941 8.76685 112.561 8.76685Q113.756 8.76685 114.761 9.21802Q115.771 9.66919 116.447 10.551L116.447 4.41919L118.462 4.41919ZM112.73 18.3645Q113.776 18.3645 114.638 17.8723Q115.499 17.375 115.981 16.4829Q116.468 15.5908 116.468 14.4373Q116.468 13.2786 115.981 12.3865Q115.499 11.4944 114.638 11.0125Q113.776 10.5305 112.73 10.5305Q111.659 10.5305 110.808 11.0125Q109.957 11.4944 109.459 12.3865Q108.967 13.2786 108.967 14.4373Q108.967 15.5908 109.459 16.4829Q109.957 17.375 110.808 17.8723Q111.659 18.3645 112.73 18.3645Z" fill="rgb(255,255,255)" fill-rule="nonzero" />
</svg>
